<mxfile host="app.diagrams.net" modified="2021-09-22T06:44:04.630Z" agent="5.0 (Windows NT 10.0; Win64; x64) AppleWebKit/537.36 (KHTML, like Gecko) Chrome/93.0.4577.82 Safari/537.36" etag="I3MIhBhA4JkRlOHmmvgm" version="14.6.12" type="github">
  <diagram id="thmd3-p6olZgxl-0T659" name="Page-1">
    <mxGraphModel dx="1422" dy="762" grid="1" gridSize="10" guides="1" tooltips="1" connect="1" arrows="1" fold="1" page="1" pageScale="1" pageWidth="827" pageHeight="1169" math="0" shadow="0">
      <root>
        <mxCell id="0" />
        <mxCell id="1" parent="0" />
        <mxCell id="6aKzffjriVXsn1hBPeyL-1" value="Пользователь" style="shape=umlActor;verticalLabelPosition=bottom;verticalAlign=top;html=1;outlineConnect=0;" vertex="1" parent="1">
          <mxGeometry x="70" y="300" width="30" height="60" as="geometry" />
        </mxCell>
        <mxCell id="6aKzffjriVXsn1hBPeyL-2" value="использование вкладки &quot;калькулятор&quot;" style="ellipse;whiteSpace=wrap;html=1;" vertex="1" parent="1">
          <mxGeometry x="180" y="180" width="120" height="80" as="geometry" />
        </mxCell>
        <mxCell id="6aKzffjriVXsn1hBPeyL-3" value="Проведение арифметических действий с числами в различных СС" style="ellipse;whiteSpace=wrap;html=1;" vertex="1" parent="1">
          <mxGeometry x="180" y="280" width="120" height="80" as="geometry" />
        </mxCell>
        <mxCell id="6aKzffjriVXsn1hBPeyL-4" value="Перевод числа из одной СС в другую" style="ellipse;whiteSpace=wrap;html=1;" vertex="1" parent="1">
          <mxGeometry x="180" y="380" width="120" height="80" as="geometry" />
        </mxCell>
        <mxCell id="6aKzffjriVXsn1hBPeyL-5" value="" style="endArrow=none;html=1;exitX=0.5;exitY=0.5;exitDx=0;exitDy=0;exitPerimeter=0;entryX=0;entryY=0.5;entryDx=0;entryDy=0;" edge="1" parent="1" source="6aKzffjriVXsn1hBPeyL-1" target="6aKzffjriVXsn1hBPeyL-2">
          <mxGeometry width="50" height="50" relative="1" as="geometry">
            <mxPoint x="390" y="370" as="sourcePoint" />
            <mxPoint x="440" y="320" as="targetPoint" />
          </mxGeometry>
        </mxCell>
        <mxCell id="6aKzffjriVXsn1hBPeyL-6" value="" style="endArrow=none;html=1;exitX=0.5;exitY=0.5;exitDx=0;exitDy=0;exitPerimeter=0;entryX=0;entryY=0.5;entryDx=0;entryDy=0;" edge="1" parent="1" source="6aKzffjriVXsn1hBPeyL-1" target="6aKzffjriVXsn1hBPeyL-3">
          <mxGeometry width="50" height="50" relative="1" as="geometry">
            <mxPoint x="390" y="370" as="sourcePoint" />
            <mxPoint x="440" y="320" as="targetPoint" />
          </mxGeometry>
        </mxCell>
        <mxCell id="6aKzffjriVXsn1hBPeyL-7" value="" style="endArrow=none;html=1;exitX=0.5;exitY=0.5;exitDx=0;exitDy=0;exitPerimeter=0;entryX=0;entryY=0.5;entryDx=0;entryDy=0;" edge="1" parent="1" source="6aKzffjriVXsn1hBPeyL-1" target="6aKzffjriVXsn1hBPeyL-4">
          <mxGeometry width="50" height="50" relative="1" as="geometry">
            <mxPoint x="390" y="370" as="sourcePoint" />
            <mxPoint x="440" y="320" as="targetPoint" />
          </mxGeometry>
        </mxCell>
        <mxCell id="6aKzffjriVXsn1hBPeyL-9" value="&amp;lt;&amp;lt;include&amp;gt;&amp;gt;" style="edgeStyle=none;html=1;endArrow=open;verticalAlign=bottom;dashed=1;labelBackgroundColor=none;entryX=1;entryY=0.5;entryDx=0;entryDy=0;exitX=0;exitY=0.5;exitDx=0;exitDy=0;" edge="1" parent="1" source="6aKzffjriVXsn1hBPeyL-10" target="6aKzffjriVXsn1hBPeyL-2">
          <mxGeometry width="160" relative="1" as="geometry">
            <mxPoint x="330" y="350" as="sourcePoint" />
            <mxPoint x="490" y="350" as="targetPoint" />
          </mxGeometry>
        </mxCell>
        <mxCell id="6aKzffjriVXsn1hBPeyL-10" value="Посмотреть результат" style="ellipse;whiteSpace=wrap;html=1;" vertex="1" parent="1">
          <mxGeometry x="420" y="315" width="140" height="70" as="geometry" />
        </mxCell>
        <mxCell id="6aKzffjriVXsn1hBPeyL-11" value="&amp;lt;&amp;lt;include&amp;gt;&amp;gt;" style="edgeStyle=none;html=1;endArrow=open;verticalAlign=bottom;dashed=1;labelBackgroundColor=none;entryX=1;entryY=0.5;entryDx=0;entryDy=0;exitX=0;exitY=0.5;exitDx=0;exitDy=0;" edge="1" parent="1" source="6aKzffjriVXsn1hBPeyL-10" target="6aKzffjriVXsn1hBPeyL-3">
          <mxGeometry width="160" relative="1" as="geometry">
            <mxPoint x="430" y="360" as="sourcePoint" />
            <mxPoint x="310" y="230" as="targetPoint" />
          </mxGeometry>
        </mxCell>
        <mxCell id="6aKzffjriVXsn1hBPeyL-12" value="&amp;lt;&amp;lt;include&amp;gt;&amp;gt;" style="edgeStyle=none;html=1;endArrow=open;verticalAlign=bottom;dashed=1;labelBackgroundColor=none;entryX=1;entryY=0.5;entryDx=0;entryDy=0;exitX=0;exitY=0.5;exitDx=0;exitDy=0;" edge="1" parent="1" source="6aKzffjriVXsn1hBPeyL-10" target="6aKzffjriVXsn1hBPeyL-4">
          <mxGeometry width="160" relative="1" as="geometry">
            <mxPoint x="440" y="370" as="sourcePoint" />
            <mxPoint x="320" y="240" as="targetPoint" />
          </mxGeometry>
        </mxCell>
      </root>
    </mxGraphModel>
  </diagram>
</mxfile>
